<?xml version="1.0" encoding="UTF-8"?>
<!DOCTYPE svg PUBLIC "-//W3C//DTD SVG 1.1//EN" "http://www.w3.org/Graphics/SVG/1.1/DTD/svg11.dtd">
<svg xmlns="http://www.w3.org/2000/svg" version="1.1" width="512px" height="512px" style="shape-rendering:geometricPrecision; text-rendering:geometricPrecision; image-rendering:optimizeQuality; fill-rule:evenodd; clip-rule:evenodd" xmlns:xlink="http://www.w3.org/1999/xlink">
<g><path style="opacity:0.995" fill="#e21b1b" d="M 235.5,-0.5 C 248.833,-0.5 262.167,-0.5 275.5,-0.5C 367.401,9.51499 436.234,54.515 482,134.5C 498.218,165.726 508.051,198.726 511.5,233.5C 511.5,248.167 511.5,262.833 511.5,277.5C 502.24,359.21 463.906,423.377 396.5,470C 359.448,493.517 319.114,507.35 275.5,511.5C 262.167,511.5 248.833,511.5 235.5,511.5C 143.599,501.485 74.7659,456.485 29,376.5C 12.7823,345.274 2.94896,312.274 -0.5,277.5C -0.5,262.833 -0.5,248.167 -0.5,233.5C 8.76043,151.79 47.0938,87.6229 114.5,41C 151.552,17.4829 191.886,3.64953 235.5,-0.5 Z"/></g>
<g><path style="opacity:1" fill="#fefefe" d="M 336.5,134.5 C 349.465,146.965 362.298,159.631 375,172.5C 375.667,173.5 375.667,174.5 375,175.5C 348.32,202.014 321.82,228.68 295.5,255.5C 321.82,282.32 348.32,308.986 375,335.5C 375.667,336.5 375.667,337.5 375,338.5C 362.833,350.667 350.667,362.833 338.5,375C 337.5,375.667 336.5,375.667 335.5,375C 308.986,348.32 282.32,321.82 255.5,295.5C 228.68,321.82 202.014,348.32 175.5,375C 174.833,375.667 174.167,375.667 173.5,375C 160.653,362.319 147.986,349.486 135.5,336.5C 162.167,309.5 188.833,282.5 215.5,255.5C 189.18,228.68 162.68,202.014 136,175.5C 135.333,174.5 135.333,173.5 136,172.5C 148.167,160.333 160.333,148.167 172.5,136C 173.5,135.333 174.5,135.333 175.5,136C 202.014,162.68 228.68,189.18 255.5,215.5C 282.854,188.812 309.854,161.812 336.5,134.5 Z"/></g>
</svg>
