<?xml version="1.0" encoding="UTF-8"?>
<!DOCTYPE svg PUBLIC "-//W3C//DTD SVG 1.1//EN" "http://www.w3.org/Graphics/SVG/1.1/DTD/svg11.dtd">
<svg xmlns="http://www.w3.org/2000/svg" version="1.1" width="512px" height="512px" style="shape-rendering:geometricPrecision; text-rendering:geometricPrecision; image-rendering:optimizeQuality; fill-rule:evenodd; clip-rule:evenodd" xmlns:xlink="http://www.w3.org/1999/xlink">
<g><path style="opacity:0.985" fill="#FFFFFF" d="M 111.5,-0.5 C 207.5,-0.5 303.5,-0.5 399.5,-0.5C 453.548,8.7041 489.382,39.3708 507,91.5C 508.715,98.2585 510.215,104.925 511.5,111.5C 511.5,207.5 511.5,303.5 511.5,399.5C 502.296,453.548 471.629,489.382 419.5,507C 412.741,508.715 406.075,510.215 399.5,511.5C 303.5,511.5 207.5,511.5 111.5,511.5C 57.4517,502.296 21.6184,471.629 4,419.5C 2.28494,412.741 0.784944,406.075 -0.5,399.5C -0.5,303.5 -0.5,207.5 -0.5,111.5C 8.7041,57.4517 39.3708,21.6184 91.5,4C 98.2585,2.28494 104.925,0.784944 111.5,-0.5 Z M 120.5,42.5 C 210.501,42.3333 300.501,42.5 390.5,43C 424.245,47.0883 448.079,64.5883 462,95.5C 465.102,103.574 467.102,111.907 468,120.5C 468.667,210.5 468.667,300.5 468,390.5C 463.912,424.245 446.412,448.079 415.5,462C 407.426,465.102 399.093,467.102 390.5,468C 300.5,468.667 210.5,468.667 120.5,468C 86.7546,463.912 62.9212,446.412 49,415.5C 45.8981,407.426 43.8981,399.093 43,390.5C 42.0198,297.81 42.3532,205.144 44,112.5C 54.1314,72.1958 79.6314,48.8625 120.5,42.5 Z"/></g>
<g><path style="opacity:0.97" fill="#FFFFFF" d="M 248.5,127.5 C 262.959,125.137 272.459,130.804 277,144.5C 277.5,174.165 277.667,203.831 277.5,233.5C 307.169,233.333 336.835,233.5 366.5,234C 380.355,238.531 385.855,248.031 383,262.5C 379.977,270.192 374.477,275.025 366.5,277C 336.835,277.5 307.169,277.667 277.5,277.5C 277.667,307.169 277.5,336.835 277,366.5C 272.469,380.355 262.969,385.855 248.5,383C 240.808,379.977 235.975,374.477 234,366.5C 233.5,336.835 233.333,307.169 233.5,277.5C 203.831,277.667 174.165,277.5 144.5,277C 130.645,272.469 125.145,262.969 128,248.5C 131.023,240.808 136.523,235.975 144.5,234C 174.165,233.5 203.831,233.333 233.5,233.5C 233.333,203.831 233.5,174.165 234,144.5C 236.169,136.502 241.003,130.835 248.5,127.5 Z"/></g>
</svg>
